<?xml version="1.0" standalone="no"?>
<!DOCTYPE svg PUBLIC "-//W3C//DTD SVG 20010904//EN"
 "http://www.w3.org/TR/2001/REC-SVG-20010904/DTD/svg10.dtd">
<svg version="1.0" xmlns="http://www.w3.org/2000/svg"
 width="48.000000pt" height="48.000000pt" viewBox="0 0 48.000000 48.000000"
 preserveAspectRatio="xMidYMid meet">

<g transform="translate(0.000000,48.000000) scale(0.100000,-0.100000)"
fill="#000000" stroke="none">
<path d="M168 413 c-6 -7 -19 -13 -30 -13 -11 0 -22 -9 -25 -20 -3 -10 -14
-22 -25 -26 -14 -4 -18 -12 -15 -26 3 -12 0 -21 -10 -25 -10 -4 -13 -13 -8
-30 3 -14 1 -31 -5 -38 -7 -9 -6 -16 4 -24 8 -7 12 -21 8 -33 -3 -13 1 -24 12
-30 9 -5 16 -18 16 -28 0 -12 7 -20 18 -20 9 0 23 -9 30 -21 8 -13 19 -18 29
-15 9 4 21 -1 28 -11 11 -15 15 -15 29 -4 13 11 19 11 32 0 14 -11 18 -11 28
3 8 11 20 15 33 12 15 -4 23 0 28 15 3 12 15 21 26 21 12 0 19 7 19 20 0 11 7
23 15 26 8 4 15 17 15 29 0 13 5 27 11 30 6 4 7 14 3 24 -4 9 -6 28 -5 42 1
15 -5 29 -13 32 -9 4 -12 14 -9 25 3 14 -1 22 -15 26 -11 4 -22 16 -25 26 -3
12 -14 20 -25 20 -11 0 -22 5 -24 12 -6 17 -136 18 -150 1z m56 -95 c17 -28
-4 -72 -37 -76 -16 -2 -35 2 -43 9 -17 14 -18 61 -2 77 17 17 69 11 82 -10z
m90 10 c-44 -81 -122 -188 -137 -188 -21 0 -23 -4 52 112 36 57 62 88 74 88
12 0 16 -5 11 -12z m30 -110 c7 -11 7 -26 0 -45 -7 -22 -17 -29 -42 -31 -26
-3 -34 1 -44 22 -18 41 3 78 44 74 17 -2 36 -11 42 -20z"/>
<path d="M164 299 c-10 -17 13 -36 27 -22 12 12 4 33 -11 33 -5 0 -12 -5 -16
-11z"/>
<path d="M284 199 c-10 -17 13 -36 27 -22 12 12 4 33 -11 33 -5 0 -12 -5 -16
-11z"/>
</g>
</svg>
